<svg width="182" height="86" viewBox="0 0 182 86" fill="none" xmlns="http://www.w3.org/2000/svg">
<g clip-path="url(#clip0_805_2)">
<path d="M55.26 52.29C53.87 52.66 54.06 51.44 54.65 50.39C55.8348 48.3054 56.5194 45.9742 56.65 43.58C56.7871 41.2405 56.3512 38.9029 55.38 36.77C54.82 35.55 55.15 34.7701 56.29 34.8801C59.5056 34.9169 62.6813 35.5969 65.63 36.8801C68.25 38.2201 68.53 40.88 66.33 44.11C63.93 47.65 58.58 51.38 55.24 52.27L55.26 52.29Z" fill="url(#paint0_linear_805_2)"/>
<path d="M0.81999 9.19001C1.87999 3.19001 6.81999 -2.47 15.41 1.14C26.82 5.99 45.32 23.86 52.69 32.88C54.11 34.62 53.25 35.1 52.43 35.17C40.9743 36.2523 29.8587 39.6547 19.76 45.17C17.95 46.17 18.4 46.17 16.27 45.46C5.81999 41.71 1.41999 34.77 0.349988 25.15C-0.244996 19.8217 -0.0935344 14.4364 0.799989 9.15001L0.81999 9.19001Z" fill="url(#paint1_linear_805_2)"/>
<path d="M16.68 48.7C11.26 53.01 9.90998 58.24 10.07 64.94C10.13 67.52 10.96 75.41 11.45 78.2C12.92 86.62 18.96 87.92 27.5 81.93C36.04 75.94 45.5 63.79 51.5 55.93C53.02 53.93 52.76 52.93 50.8 53.21C40.4 54.5 29.16 53.21 19.68 48.67C18.25 47.99 17.97 47.67 16.68 48.74V48.7Z" fill="url(#paint2_linear_805_2)"/>
<path fill-rule="evenodd" clip-rule="evenodd" d="M81.23 62.99H84.82C84.8922 62.99 84.9637 63.0042 85.0304 63.0318C85.0972 63.0595 85.1578 63.1 85.2089 63.1511C85.2599 63.2021 85.3004 63.2628 85.3281 63.3295C85.3557 63.3962 85.37 63.4677 85.37 63.5399V70.14C85.37 71.84 86.31 73.69 88.16 73.7H93.74V63.53C93.74 63.3841 93.7979 63.2442 93.901 63.1411C94.0042 63.0379 94.1441 62.9799 94.29 62.9799H97.82C97.9658 62.9799 98.1057 63.0379 98.2089 63.1411C98.312 63.2442 98.37 63.3841 98.37 63.53C98.37 64.53 98.37 77.31 98.37 77.31C98.37 80.23 96.7 84.44 90.9 84.44H84.4699C84.3977 84.44 84.3262 84.4257 84.2595 84.3981C84.1928 84.3705 84.1321 84.3299 84.081 84.2789C84.03 84.2278 83.9895 84.1672 83.9618 84.1004C83.9342 84.0337 83.92 83.9622 83.92 83.89V81.42C83.92 81.3477 83.9342 81.2762 83.9618 81.2095C83.9895 81.1427 84.03 81.0821 84.081 81.031C84.1321 80.98 84.1928 80.9395 84.2595 80.9118C84.3262 80.8842 84.3977 80.87 84.4699 80.87H90.9C92.9 80.87 93.71 78.8699 93.71 77.2599H88.13C82.43 77.2599 80.66 73.06 80.66 70.12V63.53C80.66 63.3841 80.7179 63.2442 80.8211 63.1411C80.9242 63.0379 81.0641 62.9799 81.21 62.9799V62.9799L81.23 62.99ZM77.45 77.28H73.29C73.146 77.2431 73.012 77.1746 72.8979 77.0794C72.7837 76.9843 72.6922 76.8649 72.63 76.7299L70.57 73.7299C70.3034 73.2292 69.9158 72.8031 69.4425 72.4904C68.9692 72.1778 68.4251 71.9886 67.86 71.94H64.86V76.7299C64.86 76.8758 64.802 77.0157 64.6989 77.1189C64.5957 77.222 64.4558 77.28 64.31 77.28H60.75C60.6041 77.28 60.4642 77.222 60.361 77.1189C60.2579 77.0157 60.2 76.8758 60.2 76.7299V63.56C60.2 63.4141 60.2579 63.2742 60.361 63.1711C60.4642 63.0679 60.6041 63.0099 60.75 63.0099H64.31C64.4558 63.0099 64.5957 63.0679 64.6989 63.1711C64.802 63.2742 64.86 63.4141 64.86 63.56V63.56V68.3499H67.86C68.4251 68.3013 68.9692 68.1121 69.4425 67.7995C69.9158 67.4868 70.3034 67.0607 70.57 66.56L72.63 63.56C72.6922 63.425 72.7837 63.3056 72.8979 63.2105C73.012 63.1153 73.146 63.0468 73.29 63.0099H77.45C78.04 63.0099 78.1499 63.3299 77.9999 63.5699L75.38 67.5699C74.49 68.9199 73.83 69.93 73.03 70.16C73.83 70.39 74.48 71.3999 75.38 72.7599L77.9999 76.7599C78.1499 76.9999 78 77.3199 77.45 77.3199V77.28ZM101.26 70.14C101.26 74.41 104.16 77.28 108.5 77.28H112.58C113.535 77.3292 114.49 77.179 115.384 76.839C116.278 76.4989 117.092 75.9765 117.773 75.3048C118.454 74.6332 118.988 73.8271 119.34 72.9379C119.692 72.0487 119.856 71.0958 119.82 70.14C119.82 65.98 117.1 63 112.35 63H105.92C105.84 61.36 106.84 59.39 108.73 59.39H115.9C116.046 59.39 116.186 59.332 116.289 59.2289C116.392 59.1257 116.45 58.9858 116.45 58.84V56.37C116.45 56.2241 116.392 56.0842 116.289 55.981C116.186 55.8779 116.046 55.8199 115.9 55.8199H108.73C102.73 55.8199 101.26 60.04 101.26 62.95V70.13V70.14ZM108.72 73.72C108.137 73.7097 107.574 73.5084 107.117 73.1471C106.66 72.7858 106.334 72.2844 106.19 71.72C106.043 71.2271 105.976 70.714 105.99 70.2V66.61H112.34C114.27 66.61 115.12 68.54 115.12 70.2C115.12 71.86 114.27 73.75 112.35 73.75H108.72V73.72ZM148.44 68.63C148.294 68.63 148.154 68.6879 148.051 68.791C147.948 68.8942 147.89 69.0341 147.89 69.18V71.0999C147.89 71.2458 147.948 71.3857 148.051 71.4889C148.154 71.592 148.294 71.65 148.44 71.65H159.51C159.652 71.6501 159.789 71.5949 159.892 71.496C159.995 71.3971 160.055 71.2623 160.06 71.12C160.099 70.8316 160.119 70.541 160.12 70.25C160.12 65.58 157.01 62.99 152.65 62.99H147.65C142.89 62.99 140.18 65.99 140.18 70.13C140.144 71.0858 140.307 72.0387 140.66 72.9279C141.012 73.8171 141.546 74.6232 142.227 75.2948C142.908 75.9665 143.722 76.489 144.616 76.829C145.51 77.1691 146.465 77.3192 147.42 77.27H152.86C153.991 77.3181 155.117 77.0912 156.141 76.6088C157.165 76.1263 158.057 75.4027 158.74 74.5C158.772 74.4358 158.791 74.3658 158.796 74.2941C158.801 74.2224 158.792 74.1504 158.768 74.0824C158.745 74.0144 158.708 73.9518 158.661 73.8981C158.613 73.8445 158.555 73.8009 158.49 73.77C158.415 73.7351 158.333 73.718 158.25 73.72H147.66C145.74 73.72 144.89 71.8 144.89 70.17C144.89 68.54 145.74 66.58 147.67 66.58H152.67C153.216 66.5889 153.745 66.7655 154.187 67.0857C154.629 67.4059 154.962 67.8543 155.14 68.37V68.64H148.44V68.63ZM132.37 76.72C132.37 76.8658 132.312 77.0057 132.209 77.1089C132.106 77.212 131.966 77.27 131.82 77.27H128.25C128.104 77.27 127.964 77.212 127.861 77.1089C127.758 77.0057 127.7 76.8658 127.7 76.72V66.53H122.04C121.894 66.53 121.754 66.472 121.651 66.3689C121.548 66.2657 121.49 66.1258 121.49 65.9799V63.5099C121.49 63.3641 121.548 63.2242 121.651 63.1211C121.754 63.0179 121.894 62.96 122.04 62.96H138.04C138.186 62.96 138.326 63.0179 138.429 63.1211C138.532 63.2242 138.59 63.3641 138.59 63.5099V65.99C138.59 66.1358 138.532 66.2757 138.429 66.3789C138.326 66.482 138.186 66.5399 138.04 66.5399H132.38V76.71L132.37 76.72ZM161.45 77.28H165.23C165.38 77.2511 165.52 77.1858 165.639 77.0899C165.757 76.994 165.85 76.8704 165.91 76.7299L169.35 68.36C169.71 67.48 169.97 66.5699 171.35 66.5699C172.71 66.5699 172.9 67.51 173.35 68.36L176.79 76.7299C176.852 76.8649 176.944 76.9843 177.058 77.0794C177.172 77.1746 177.306 77.2431 177.45 77.28H181.24C181.83 77.28 181.91 76.97 181.79 76.72L177.18 65.62C175.93 62.62 174.67 63.0199 171.36 62.9799C168.06 62.9799 166.78 62.63 165.54 65.62L160.93 76.72C160.82 76.98 160.93 77.28 161.48 77.28H161.45Z" fill="white"/>
</g>
<defs>
<linearGradient id="paint0_linear_805_2" x1="65.35" y1="48.3545" x2="51.9414" y2="46.9539" gradientUnits="userSpaceOnUse">
<stop offset="0.02" stop-color="#5BBCF0"/>
<stop offset="0.98" stop-color="#184C85"/>
</linearGradient>
<linearGradient id="paint1_linear_805_2" x1="6.31959" y1="18.1177" x2="38.9537" y2="43.0957" gradientUnits="userSpaceOnUse">
<stop offset="0.01" stop-color="#CA0088"/>
<stop offset="0.99" stop-color="#770051"/>
</linearGradient>
<linearGradient id="paint2_linear_805_2" x1="36.2849" y1="51.7329" x2="15.4172" y2="76.602" gradientUnits="userSpaceOnUse">
<stop offset="0.01" stop-color="#D5672B"/>
<stop offset="0.28" stop-color="#D5672B"/>
<stop offset="0.99" stop-color="#F2CA30"/>
</linearGradient>
<clipPath id="clip0_805_2">
<rect width="181.81" height="85.63" fill="white"/>
</clipPath>
</defs>
</svg>
